<svg xmlns="http://www.w3.org/2000/svg" xmlns:xlink="http://www.w3.org/1999/xlink" viewBox="0,0,255.98958,255.98958" width="24px" height="24px" fill-rule="nonzero"><g fill="#e5e5e5" fill-rule="nonzero" stroke="none" stroke-width="1" stroke-linecap="butt" stroke-linejoin="miter" stroke-miterlimit="10" stroke-dasharray="" stroke-dashoffset="0" font-family="none" font-weight="none" font-size="none" text-anchor="none" style="mix-blend-mode: normal"><g transform="scale(10.66667,10.66667)"><path d="M20,12c0,4.411 -3.589,8 -8,8c-4.411,0 -8,-3.589 -8,-8c0,-2.52 1.174,-4.768 3,-6.235v-2.412c-2.984,1.732 -5,4.956 -5,8.647c0,5.514 4.486,10 10,10c5.514,0 10,-4.486 10,-10c0,-5.514 -4.486,-10 -10,-10v2c4.411,0 8,3.589 8,8z"></path><path d="M2,2h7v7z"></path></g></g></svg>