<svg xmlns="http://www.w3.org/2000/svg" xmlns:xlink="http://www.w3.org/1999/xlink" viewBox="0,80,255.98958,90.98958" width="130px" height="50px" fill-rule="nonzero"><g transform=""><g fill="#f44336" fill-rule="nonzero" stroke="none" stroke-width="1" stroke-linecap="butt" stroke-linejoin="miter" stroke-miterlimit="10" stroke-dasharray="" stroke-dashoffset="0" font-family="none" font-weight="none" font-size="none" text-anchor="none" style="mix-blend-mode: normal"><g transform="scale(5.33333,5.33333)"><path d="M5,18c0.7,0 1.3,0 2,0c0,4.1 0,8.1 0,12.2c-0.8,0.1 -1.6,0.2 -2.3,0.3c-1,-2.5 -2.7,-6.8 -2.7,-6.8c0,0 0,4.3 0,7.1c0.4,0 -0.2,0 -2,0.3c0,-4.3 0,-8.7 0,-13c0.8,0 2,0 2,0l3,7.3c0,0 0,-4.6 0,-7.4zM14.7,20c0,-0.6 0,-1.4 0,-2c-1.9,0 -3.8,0 -5.7,0c0,4 0,8 0,12c1.9,-0.2 3.8,-0.4 5.7,-0.6c0,-0.6 0,-1.4 0,-2c-1.2,0.1 -2.4,0.1 -3.7,0.4c0,-1.1 0,-1.7 0,-2.8c0.9,0 2.1,0 3,0c0,-0.6 0,-1.4 0,-2c-0.9,0 -2.1,0 -3,0c0,-1.1 0,-1.9 0,-3c0.6,0.1 3.2,0.1 3.7,0zM16,20c0.1,0 1.9,0 2,0c0,3.2 0,6 0,9.2c0.7,0 1.3,0 2,-0.1c0,-3.2 0,-5.9 0,-9.1c0.7,0 1.3,0 2,0c0,-0.6 0,-1.4 0,-2c-2.1,0 -3.9,0 -6,0c0,0.6 0,1.4 0,2zM28.6,18c-1.9,0 -3.7,0 -5.6,0c0,3.8 0,7.2 0,11c0.2,0 0.4,0 0.6,0c0.4,0 0.9,0 1.4,0c0,-1.6 0,-2.4 0,-4c0.1,0 2.4,0 2.7,0c0,-0.6 0,-1.4 0,-2c-0.3,0 -2.6,0 -2.7,0c0,-1 0,-2 0,-3c0.2,0 3.1,0 3.6,0c0,-0.5 0,-1.4 0,-2zM32,27.5c0,-3.3 0,-6.2 0,-9.5c-0.7,0 -1.3,0 -2,0c0,3.8 0,7.4 0,11.2c1.8,0.1 3.6,0.2 5.4,0.4c0,-0.6 0,-1.3 0,-1.9c-1.1,-0.1 -2.3,-0.2 -3.4,-0.2zM37,29.7c0.7,0.1 1.3,0.1 2,0.2c0,-4 0,-7.9 0,-11.9c-0.7,0 -1.3,0 -2,0c0,4 0,7.8 0,11.7zM45.4,24.2c0.9,-2 1.7,-4 2.6,-6.1c-0.7,0 -1.5,0 -2.2,0c-0.5,1.3 -0.9,2.2 -1.4,3.4c-0.5,-1.3 -0.8,-2.2 -1.3,-3.4c-0.7,0 -1.5,0 -2.2,0c0.8,2 1.5,4 2.4,6.1c-0.9,2 -1.7,4 -2.6,6c0.7,0.1 1.4,0.2 2.1,0.3c0.5,-1.3 1,-2.2 1.5,-3.5c0.5,1.4 1,2.4 1.5,3.8c0.7,0.1 1.6,0.2 2.3,0.3c-1,-2.4 -1.9,-4.8 -2.7,-6.9z"></path></g></g></g></svg>